<svg width="1024" height="1024" viewBox="0 0 1024 1024" fill="none" xmlns="http://www.w3.org/2000/svg">
<path d="M516.903 633H493.319V447.233L453.842 562.248H437.094L397.787 447.233V633H374.374V409.978H404.794L445.468 526.53L486.483 409.978H516.903V633ZM716.342 493.718H648.495V613.005H684.384V633H588.852V613.005H624.911V493.718H588.852V473.723H624.911C624.911 451.848 630.551 435.157 641.83 423.649C653.223 412.028 670.37 406.218 693.271 406.218C698.625 406.218 703.126 406.389 706.771 406.73C710.531 407.072 713.721 407.471 716.342 407.927V427.922C713.038 427.466 709.563 427.067 705.917 426.726C702.385 426.384 698.17 426.213 693.271 426.213C678.345 426.213 667.123 430.03 659.604 437.663C652.198 445.183 648.495 457.202 648.495 473.723H716.342V493.718Z" fill="#FFBB00" style="fill:#FFBB00;fill:color(display-p3 1.0000 0.7333 0.0000);fill-opacity:1;"/>
</svg>
